<svg xmlns="http://www.w3.org/2000/svg" width="1280" height="1280"><rect width="1280" height="1280" x="0" y="0" fill="#f7f7f7" id="backgorund"/><g id="viz"><g transform="translate(0,0)"><g transform="translate(50,20)"><g class="bars"><rect id="undefined - OCTUBRE" x="0.9991809991810214" y="62.00000000000006" height="1178" width="405.33442533442536" fill="#de734f"/><rect id="undefined - NOVIEMBRE" x="407.33278733278735" y="186.00000000000003" height="1054" width="405.33442533442536" fill="#de734f"/><rect id="undefined - DICIEMBRE" x="813.6663936663937" y="247.99999999999994" height="992" width="405.33442533442536" fill="#de734f"/></g><g id="xAxis" transform="translate(0,1240)" fill="none" font-size="10" font-family="sans-serif" text-anchor="middle"><path class="domain" stroke="currentColor" d="M0,0H1220"/><g class="tick" opacity="1" transform="translate(203.6663936663937,0)"><line stroke="currentColor" y2="6"/><text fill="currentColor" y="9" dy="0.71em">OCTUBRE</text></g><g class="tick" opacity="1" transform="translate(610,0)"><line stroke="currentColor" y2="6"/><text fill="currentColor" y="9" dy="0.71em">NOVIEMBRE</text></g><g class="tick" opacity="1" transform="translate(1016.3336063336063,0)"><line stroke="currentColor" y2="6"/><text fill="currentColor" y="9" dy="0.71em">DICIEMBRE</text></g><text x="1220" y="-4" text-anchor="end" style="font-family: Arial, sans-serif; font-size: 12px; fill: rgb(123, 123, 123); font-weight: bold;">MES</text></g><g id="yAxis" fill="none" font-size="10" font-family="sans-serif" text-anchor="end"><path class="domain" stroke="currentColor" d="M-6,1240H0V0H-6"/><g class="tick" opacity="1" transform="translate(0,1240)"><line stroke="currentColor" x2="-6"/><text fill="currentColor" x="-9" dy="0.32em">0</text></g><g class="tick" opacity="1" transform="translate(0,1116)"><line stroke="currentColor" x2="-6"/><text fill="currentColor" x="-9" dy="0.32em">2</text></g><g class="tick" opacity="1" transform="translate(0,992)"><line stroke="currentColor" x2="-6"/><text fill="currentColor" x="-9" dy="0.32em">4</text></g><g class="tick" opacity="1" transform="translate(0,868)"><line stroke="currentColor" x2="-6"/><text fill="currentColor" x="-9" dy="0.32em">6</text></g><g class="tick" opacity="1" transform="translate(0,744)"><line stroke="currentColor" x2="-6"/><text fill="currentColor" x="-9" dy="0.32em">8</text></g><g class="tick" opacity="1" transform="translate(0,620)"><line stroke="currentColor" x2="-6"/><text fill="currentColor" x="-9" dy="0.32em">10</text></g><g class="tick" opacity="1" transform="translate(0,496)"><line stroke="currentColor" x2="-6"/><text fill="currentColor" x="-9" dy="0.32em">12</text></g><g class="tick" opacity="1" transform="translate(0,372.00000000000006)"><line stroke="currentColor" x2="-6"/><text fill="currentColor" x="-9" dy="0.32em">14</text></g><g class="tick" opacity="1" transform="translate(0,247.99999999999994)"><line stroke="currentColor" x2="-6"/><text fill="currentColor" x="-9" dy="0.32em">16</text></g><g class="tick" opacity="1" transform="translate(0,123.99999999999997)"><line stroke="currentColor" x2="-6"/><text fill="currentColor" x="-9" dy="0.32em">18</text></g><g class="tick" opacity="1" transform="translate(0,0)"><line stroke="currentColor" x2="-6"/><text fill="currentColor" x="-9" dy="0.32em">20</text></g><text x="4" text-anchor="start" dominant-baseline="hanging" style="font-family: Arial, sans-serif; font-size: 12px; fill: rgb(123, 123, 123); font-weight: bold;">SOBREVIVIENTES [sum]</text></g></g><text y="4" x="4" style="font-family: Arial, sans-serif; font-size: 12px; fill: black; font-weight: bold; dominant-baseline: hanging;"/></g></g></svg>