<?xml version="1.0" encoding="utf-8"?>
<!-- Generator: Adobe Adobe Illustrator 24.2.0, SVG Export Plug-In . SVG Version: 6.00 Build 0)  -->
<svg version="1.1" xmlns="http://www.w3.org/2000/svg" xmlns:xlink="http://www.w3.org/1999/xlink" x="0px" y="0px" width="1280px"
	 height="1280px" viewBox="0 0 1280 1280" style="enable-background:new 0 0 1280 1280;" xml:space="preserve">
<style type="text/css">
	.st0{display:none;}
	.st1{display:inline;fill:#F7F7F7;stroke:#F7F7F7;stroke-miterlimit:10;}
	.st2{fill:#C24A4A;stroke:#000000;stroke-width:8;stroke-miterlimit:10;}
	.st3{fill:#532A2A;stroke:#000000;stroke-width:8;stroke-miterlimit:10;}
	.st4{fill:#EBEBEB;stroke:#000000;stroke-width:8;stroke-miterlimit:10;}
	.st5{fill:#949494;}
	.st6{fill:#949494;stroke:#000000;stroke-width:8;stroke-miterlimit:10;}
	.st7{display:none;fill:none;stroke:#000000;stroke-width:8;stroke-miterlimit:10;}
	.st8{fill:#F7DED1;stroke:#000000;stroke-width:9;stroke-miterlimit:10;}
</style>
<g id="Layer_1" class="st0">
	<rect class="st1" width="1280" height="1280"/>
</g>
<g id="Layer_3">
</g>
<g id="Layer_2">
	<path class="st2" d="M306.09,227.15c-50.38,53.08-91.27,109.47-139,169.7c-9.29,11.73-17.46,26.9-13.17,41.24
		c2.25,7.51,7.8,13.51,13.26,19.13c21.86,22.52,45.05,37.87,69.39,54.66c16.2,11.17,38.1,9.02,51.83-5.06
		c57.73-59.2,106.37-118.12,165.98-186.1c4.3-6.2,8.77-12.96,8.63-20.51c-0.05-2.96-0.83-5.86-1.37-8.77
		c-1.48-7.92-1.26-16.05-1.72-24.15c-0.12-0.12-0.24-0.24-0.36-0.36"/>
	<path class="st3" d="M337.92,196.11l55.67-54.85c8.11-7.99,20.88-8.78,29.92-1.85c28.93,22.17,57.82,44.38,86.52,66.84
		c11.03,8.63,11.79,25.08,1.56,34.65c-12.3,11.5-24.8,22.78-37.49,33.84"/>
	<path class="st3" d="M382.08,212.84c14.82-13.63,30.29-26.56,46.32-38.73"/>
	<path class="st3" d="M429.86,244.51c13.95-12.95,28.39-25.38,43.27-37.25"/>
	<path class="st3" d="M387.2,187.65c27.72,19.22,53.78,40.85,78.12,64.22c0.15,0,0.29,0,0.44,0"/>
	<path class="st4" d="M321.95,191.57c-26.47-6.04-56.16,10.67-64.73,36.44c17.6-6.43,38.02-4.6,54.19,4.86
		c-8.57,25.71-11.26,53.36-7.79,80.24c15.58-26.37,43.03-45.42,73.19-50.8c-10.16,29.29-14.14,60.72-11.59,91.62
		c14.88-34.68,40.83-68.74,77.92-75.69c17.83,32.2,24.57,70.39,18.85,106.75c21.74-31.42,28.84-72.56,19.33-109.95
		C426.06,252.14,380.83,205,321.95,191.57z"/>
</g>
<g id="Layer_4">
	<g id="Layer_5">
		<path class="st5" d="M949.58,527.55c-2.04,3.01-6.71,0.32-8.92-2.56c-14.16-18.46-18.25-43.15-15.57-66.26
			c2.68-23.11,11.53-45.02,21.16-66.19c13.04-28.68,28.37-57.5,43.64-86.23c-34.31,35.25-56.48,82.11-61.96,130.99
			c-1.74,15.51-1.82,31.45,2.42,46.47c4.24,15.02,13.17,29.13,26.44,37.35c13.27,8.21,31.11,9.67,44.49,1.61
			c11.2-6.74,17.95-18.84,23.31-30.77c23.76-52.85,29.7-114.31,12.27-169.57c-0.81-2.55-1.7-5.17-3.47-7.17
			c-1.84-2.09-4.45-3.32-6.98-4.48c-12-5.55-26.97-10.86-37.53-2.91"/>
	</g>
	<path class="st6" d="M1025.28,265.02c-38.75,17.53-78.98,31.77-119.75,44.66c-14.87,12.42-22.72,36.7-16.89,55.17
		c5.83,18.48,17.13,43.05,20.73,62.09c5.16,27.22-4.84,54.87-14.44,83.38c-5.78,2.34-6.82,1.23-13.87,3.14
		c-30.92,16.32-63.28,36.43-92.1,56.22c-5.43,3.73-11.31,8.32-12.03,14.86c-0.76,6.94,5.01,13.24,11.61,15.51
		c6.6,2.27,13.81,1.47,20.73,0.64c37.37-4.46,74.74-9,112.1-13.61c6.23-0.77,12.69-1.62,18-4.98"/>
	<path class="st6" d="M1070.35,495.94c0.67-2.32,0.71-4.17,1.07-6.22c6.02-34.35,20.77-68.11,14.37-102.27
		c-2.63-14.03-10.83-27.54-12.7-41.69c-1.71-12.92-0.65-26.06-1.75-39.05s-4.76-26.47-14.07-35.59
		c-9.31-9.12-25.45-12.12-35.47-3.79c-14.14,13.15-19.99,36.77-13.34,56.8c3.29,9.92,9.26,18.7,13.66,28.17
		c18.95,40.76,7.22,88.49-6.73,133.41c-25.95,11.27-51.89,22.55-77.84,33.82c-11.93,5.18-24.3,10.68-32.74,20.58
		c-8.44,9.9-11.63,25.58-3.67,35.87c6.21,8.02,17.51,10.65,27.52,9.06s19.07-6.7,27.82-11.82c36.49-21.36,71.91-44.54,106.09-69.42
		C1065.38,501.78,1069.66,498.31,1070.35,495.94z"/>
	<path class="st6" d="M919.12,307.23c-4.9,20.47-2.75,42.55,6,61.69c0.51,1.11,1.08,2.26,2.1,2.93c1.15,0.76,2.61,0.75,3.99,0.69
		c19.66-0.76,39.17-5.45,57.02-13.73c-5.19-19.94-10.42-40.59-7.14-60.94c0.85-5.26,2.09-13.09,5.97-16.74"/>
	<path class="st7" d="M432.95,714.55c3.98-0.82,8.06-1.68,11.48-3.87C447.85,708.48,450.51,704.62,432.95,714.55z"/>
	<path class="st6" d="M940.7,420.89c8.83,22.49,8.2,48.52-1.69,70.56"/>
	<path class="st6" d="M997.3,422.07c1.79,20.74,3.47,42.33-4.04,61.75"/>
	<path class="st6" d="M1005.07,490.2c-40.97,9.85-83.28,15.99-124.77,23.4"/>
</g>
<g id="Layer_6">
	<path class="st8" d="M410.86,1042.88c27.81-24.32,52.6-52.09,73.63-82.46c7.29-10.53,14.36-22.12,14.56-34.92
		c0.25-16.21-10.41-30.21-19.38-43.71c-10.41-15.66-19.15-32.44-26.03-49.94c-5.45-13.87-9.45-30.52-1.16-42.9
		c1.39-2.07,3.18-4,5.52-4.84c4.12-1.48,8.61,0.77,12.11,3.39c18.54,13.84,25.74,38.02,40.16,56.12c2.75,3.45,6.68,7.01,10.99,6.02
		c2.21-0.5,3.97-2.13,5.42-3.88c9.96-12.06,8.12-29.55,6.88-45.14c-2.79-34.86,0.13-70.17,8.61-104.1
		c1.54-6.17,3.93-13.09,9.81-15.51c7.92-3.26,16.36,3.94,20.26,11.56c7.12,13.91,7.03,30.26,6.78,45.88
		c-0.55,34.19-1.1,68.37-3.3,103.32c4.87-0.02,8.11-4.93,10.07-9.38c15.77-35.66,8.69-76.82,13.69-115.49
		c0.92-7.09,2.32-14.33,6.15-20.38c3.82-6.05,10.55-10.71,17.69-10.24c6.65,0.44,12.42,5.23,15.7,11.03
		c3.28,5.8,4.48,12.52,5.39,19.13c5.75,41.96,1.54,85.26-12.2,125.33c-0.47,1.36-0.95,2.78-0.71,4.2c0.48,2.9,3.93,4.53,6.82,4.02
		c2.89-0.51,5.26-2.54,7.31-4.65c16.46-16.86,21.67-41.35,31.89-62.58c5.15-10.69,12.51-21.38,23.73-25.23
		c4.84-1.66,10.75-1.69,14.5,1.79c3.47,3.22,4.11,8.44,4.07,13.18c-0.19,21.8-9.98,42.23-19.57,61.81
		c-22.57,46.09-47.39,94.69-91.41,121.06c-7.12,4.26-14.67,7.89-21.16,13.06c-5.72,4.55-10.47,10.19-15.06,15.89
		c-21,26.07-39.42,54.21-54.91,83.89"/>
</g>
<g id="Layer_7">
</g>
</svg>
